<svg width="209" height="166" viewBox="0 0 209 166" fill="none" xmlns="http://www.w3.org/2000/svg">
<g clip-path="url(#clip0_811_3070)">
<path d="M208.721 10.3047H30.8795C30.8049 10.303 30.7338 10.2721 30.6816 10.2186C30.6294 10.1651 30.6002 10.0933 30.6002 10.0184C30.6002 9.94357 30.6294 9.8717 30.6816 9.8182C30.7338 9.7647 30.8049 9.73382 30.8795 9.73218H208.721C208.795 9.73382 208.866 9.7647 208.919 9.8182C208.971 9.8717 209 9.94357 209 10.0184C209 10.0933 208.971 10.1651 208.919 10.2186C208.866 10.2721 208.795 10.303 208.721 10.3047Z" fill="#CACACA"/>
<path d="M37.1669 6.29727C38.8639 6.29727 40.2397 4.88758 40.2397 3.14863C40.2397 1.40969 38.8639 0 37.1669 0C35.4699 0 34.0942 1.40969 34.0942 3.14863C34.0942 4.88758 35.4699 6.29727 37.1669 6.29727Z" fill="#3F3D56"/>
<path d="M47.7819 6.29727C49.4789 6.29727 50.8546 4.88758 50.8546 3.14863C50.8546 1.40969 49.4789 0 47.7819 0C46.0848 0 44.7091 1.40969 44.7091 3.14863C44.7091 4.88758 46.0848 6.29727 47.7819 6.29727Z" fill="#3F3D56"/>
<path d="M58.3968 6.29727C60.0939 6.29727 61.4696 4.88758 61.4696 3.14863C61.4696 1.40969 60.0939 0 58.3968 0C56.6998 0 55.3241 1.40969 55.3241 3.14863C55.3241 4.88758 56.6998 6.29727 58.3968 6.29727Z" fill="#3F3D56"/>
<path d="M202.36 0.780396H194.819C194.67 0.78337 194.528 0.844971 194.423 0.951971C194.318 1.05897 194.26 1.20284 194.26 1.35268C194.26 1.50252 194.318 1.64639 194.423 1.75339C194.528 1.86039 194.67 1.92199 194.819 1.92496H202.36C202.509 1.92199 202.651 1.86039 202.756 1.75339C202.861 1.64639 202.919 1.50252 202.919 1.35268C202.919 1.20284 202.861 1.05897 202.756 0.951971C202.651 0.844971 202.509 0.78337 202.36 0.780396Z" fill="#3F3D56"/>
<path d="M202.36 2.92859H194.819C194.67 2.93156 194.528 2.99316 194.423 3.10016C194.318 3.20716 194.26 3.35103 194.26 3.50087C194.26 3.65071 194.318 3.79458 194.423 3.90158C194.528 4.00858 194.67 4.07018 194.819 4.07316H202.36C202.509 4.07018 202.651 4.00858 202.756 3.90158C202.861 3.79458 202.919 3.65071 202.919 3.50087C202.919 3.35103 202.861 3.20716 202.756 3.10016C202.651 2.99316 202.509 2.93156 202.36 2.92859Z" fill="#3F3D56"/>
<path d="M202.36 5.07397H194.819C194.67 5.07695 194.528 5.13855 194.423 5.24555C194.318 5.35255 194.26 5.49642 194.26 5.64626C194.26 5.7961 194.318 5.93997 194.423 6.04697C194.528 6.15397 194.67 6.21557 194.819 6.21854H202.36C202.509 6.21557 202.651 6.15397 202.756 6.04697C202.861 5.93997 202.919 5.7961 202.919 5.64626C202.919 5.49642 202.861 5.35255 202.756 5.24555C202.651 5.13855 202.509 5.07695 202.36 5.07397Z" fill="#3F3D56"/>
<path d="M199.544 19.9696H37.5606C36.6637 19.9709 35.8038 20.3287 35.1696 20.9644C34.5354 21.6001 34.1785 22.462 34.1772 23.361V23.9079C34.1785 24.807 34.5354 25.6688 35.1696 26.3045C35.8038 26.9403 36.6637 27.298 37.5606 27.2993H199.544C200.441 27.298 201.301 26.9403 201.935 26.3045C202.569 25.6688 202.926 24.807 202.927 23.9079V23.361C202.926 22.462 202.569 21.6001 201.935 20.9644C201.301 20.3287 200.441 19.9709 199.544 19.9696Z" fill="#F0F0F0"/>
<path d="M57.109 24.9877H41.69C41.345 24.9872 41.0143 24.8495 40.7706 24.6048C40.5268 24.3601 40.3899 24.0284 40.3899 23.6826C40.3899 23.3368 40.5268 23.0051 40.7706 22.7604C41.0143 22.5157 41.345 22.378 41.69 22.3775H57.109C58.7881 22.354 58.8049 25.0114 57.109 24.9877Z" fill="white"/>
<path d="M103.234 24.9877H87.8151C87.4701 24.9872 87.1394 24.8495 86.8956 24.6048C86.6518 24.3601 86.5149 24.0284 86.5149 23.6826C86.5149 23.3368 86.6518 23.0051 86.8956 22.7604C87.1394 22.5157 87.4701 22.378 87.8151 22.3775H103.234C104.913 22.354 104.93 25.0114 103.234 24.9877Z" fill="white"/>
<path d="M149.359 24.9877H133.94C133.595 24.9872 133.264 24.8495 133.021 24.6048C132.777 24.3601 132.64 24.0284 132.64 23.6826C132.64 23.3368 132.777 23.0051 133.021 22.7604C133.264 22.5157 133.595 22.378 133.94 22.3775H149.359C151.038 22.354 151.055 25.0114 149.359 24.9877Z" fill="white"/>
<path d="M193.093 25.1287H177.675C177.33 25.1282 176.999 24.9904 176.755 24.7457C176.511 24.501 176.374 24.1694 176.374 23.8236C176.374 23.4778 176.511 23.1461 176.755 22.9014C176.999 22.6567 177.33 22.519 177.675 22.5185H193.093C194.773 22.495 194.789 25.1524 193.093 25.1287Z" fill="#025DAA"/>
<path d="M169.037 19.9696H168.474V27.2993H169.037V19.9696Z" fill="white"/>
<path d="M58.0894 95.8114C57.7254 95.8376 57.3601 95.7836 57.0192 95.6531C56.6782 95.5225 56.37 95.3186 56.1162 95.0558C55.8624 94.7929 55.6692 94.4775 55.5502 94.1317C55.4312 93.7859 55.3892 93.4181 55.4273 93.0543L40.4898 75.8729L45.1268 73.0433L58.3518 90.8218C58.9573 90.9265 59.5035 91.2502 59.8868 91.7315C60.2701 92.2129 60.4639 92.8184 60.4316 93.4335C60.3992 94.0485 60.1429 94.6302 59.7113 95.0685C59.2796 95.5068 58.7025 95.7711 58.0894 95.8114Z" fill="#FFB6B6"/>
<path d="M36.0183 68.5636C36.0183 68.5636 34.8478 69.1724 36.6004 71.3535C38.0035 73.0997 44.0813 81.4539 46.6 83.275C46.4326 83.6778 46.4036 84.1249 46.5176 84.546C46.6316 84.967 46.8821 85.3381 47.2297 85.6008L51.5671 80.8093C51.4255 79.3503 50.4491 79.3643 49.8924 79.5061L48.2976 75.806L42.4202 66.22L36.8566 68.1085L36.0183 68.5636Z" fill="#025DAA"/>
<path d="M180.278 139.642H58.5138C57.5422 139.641 56.6107 139.253 55.9237 138.565C55.2366 137.876 54.8502 136.942 54.849 135.968V42.672C54.8502 41.6981 55.2366 40.7644 55.9237 40.0758C56.6107 39.3871 57.5422 38.9998 58.5138 38.9987H180.278C181.25 38.9998 182.181 39.3871 182.868 40.0758C183.555 40.7644 183.942 41.6981 183.943 42.672V135.968C183.942 136.942 183.555 137.876 182.868 138.565C182.181 139.253 181.25 139.641 180.278 139.642Z" fill="white"/>
<path d="M180.278 139.642H58.5138C57.5422 139.641 56.6107 139.253 55.9237 138.565C55.2366 137.876 54.8502 136.942 54.849 135.968V42.672C54.8502 41.6981 55.2366 40.7644 55.9237 40.0758C56.6107 39.3871 57.5422 38.9998 58.5138 38.9987H180.278C181.25 38.9998 182.181 39.3871 182.868 40.0758C183.555 40.7644 183.942 41.6981 183.943 42.672V135.968C183.942 136.942 183.555 137.876 182.868 138.565C182.181 139.253 181.25 139.641 180.278 139.642ZM58.5138 39.5625C57.6913 39.5635 56.9028 39.8913 56.3212 40.4743C55.7396 41.0572 55.4125 41.8476 55.4115 42.672V135.968C55.4125 136.793 55.7396 137.583 56.3212 138.166C56.9028 138.749 57.6913 139.077 58.5138 139.078H180.278C181.101 139.077 181.889 138.749 182.471 138.166C183.052 137.583 183.379 136.793 183.38 135.968V42.672C183.379 41.8476 183.052 41.0572 182.471 40.4743C181.889 39.8913 181.101 39.5635 180.278 39.5625H58.5138Z" fill="#F0F0F0"/>
<path d="M118.886 60.5921C118.24 59.521 117.475 58.3774 116.276 58.0277C114.887 57.6227 113.461 58.4273 112.251 59.2212C108.633 61.5957 105.149 64.169 101.814 66.9292L101.818 66.9708L109.606 66.4325C111.482 66.3028 113.422 66.1553 115.079 65.2659C115.708 64.9284 116.322 64.4775 117.034 64.4461C117.92 64.4071 118.692 65.027 119.299 65.6747C122.888 69.5059 123.927 75.3646 127.954 78.7306C125.414 72.4537 122.383 66.3885 118.886 60.5921Z" fill="#F2F2F2"/>
<path d="M140.95 93.0874C140.553 92.585 140.39 92.4674 139.999 91.9603C136.811 87.8274 133.815 83.5549 131.01 79.1428C129.104 76.1463 127.294 73.0922 125.577 69.9806C124.76 68.5013 123.966 67.0104 123.193 65.5079C122.594 64.3429 122.008 63.1709 121.436 61.992C121.272 61.6552 121.113 61.317 120.955 60.9779C120.582 60.1806 120.216 59.3794 119.822 58.5929C119.375 57.6965 118.829 56.7568 118.007 56.1545C117.632 55.8692 117.185 55.6965 116.716 55.6568C116.056 55.6605 115.41 55.8461 114.848 56.1932C110.595 58.4344 106.625 61.1786 103.023 64.3669C99.4159 67.5424 96.1916 71.1299 93.416 75.0564C93.3311 75.1779 93.1303 75.0618 93.216 74.9395C93.5535 74.4611 93.8977 73.9879 94.2485 73.5198C98.6113 67.7037 103.961 62.7022 110.052 58.7439C111.077 58.0781 112.121 57.4436 113.185 56.8404C113.721 56.5361 114.259 56.2358 114.806 55.954C115.331 55.6457 115.92 55.4629 116.526 55.4199C118.613 55.3874 119.693 57.7561 120.436 59.35C120.669 59.8516 120.905 60.3517 121.144 60.8502C122.047 62.7428 122.984 64.6182 123.956 66.4763C124.556 67.6235 125.17 68.764 125.796 69.8978C127.745 73.4285 129.817 76.8877 132.011 80.2754C134.918 84.7628 137.802 88.7269 141.113 92.9233C141.204 93.0394 141.042 93.2051 140.95 93.0874Z" fill="#E4E4E4"/>
<path d="M102.817 63.1972C102.696 63.0617 102.575 62.9263 102.453 62.7908C101.491 61.7241 100.458 60.6698 99.137 60.0582C98.507 59.7574 97.8192 59.5976 97.1214 59.5899C96.4013 59.6097 95.6914 59.7649 95.0285 60.0474C94.7134 60.1736 94.4053 60.3168 94.1018 60.4693C93.755 60.6442 93.4145 60.8308 93.0754 61.0189C92.4391 61.3719 91.811 61.7403 91.1911 62.1243C89.9578 62.8883 88.763 63.7107 87.6069 64.5913C87.0076 65.0481 86.4207 65.5197 85.8461 66.0064C85.3117 66.4585 84.7881 66.9227 84.2753 67.399C84.1657 67.5004 84.002 67.3363 84.1116 67.2349C84.2468 67.1087 84.3835 66.9833 84.5201 66.8594C84.9063 66.5096 85.2986 66.1664 85.6971 65.8299C86.4238 65.2153 87.1693 64.6244 87.9336 64.0572C89.1222 63.1748 90.3516 62.3521 91.622 61.5894C92.2568 61.2085 92.9004 60.8437 93.5527 60.4948C93.7496 60.3896 93.9489 60.2866 94.1504 60.1891C94.6078 59.9578 95.083 59.7639 95.5714 59.6093C96.2633 59.3849 96.9953 59.3128 97.7176 59.3979C98.4149 59.4996 99.0868 59.7326 99.6977 60.0846C100.995 60.8114 102.001 61.9354 102.981 63.0323C103.08 63.1438 102.917 63.3087 102.817 63.1972Z" fill="#E4E4E4"/>
<path d="M129.4 74.2511L132.509 73.1113L134.053 72.5454C134.552 72.3441 135.06 72.1685 135.577 72.0193C136.029 71.89 136.508 71.8961 136.956 72.0369C137.356 72.1852 137.722 72.4125 138.032 72.7054C138.349 72.998 138.644 73.3137 138.915 73.65C139.251 74.0548 139.582 74.4639 139.914 74.8716C141.287 76.5543 142.651 78.2443 144.005 79.9415C145.36 81.6388 146.706 83.3433 148.042 85.0549C149.382 86.7708 150.713 88.4939 152.034 90.2241C152.196 90.436 152.358 90.6481 152.519 90.8603C152.609 90.9775 152.81 90.8619 152.719 90.743C151.388 88.9954 150.048 87.255 148.698 85.5217C147.345 83.7842 145.983 82.0541 144.611 80.3314C143.239 78.6088 141.858 76.8936 140.468 75.1858C140.122 74.7604 139.775 74.3354 139.427 73.9109C139.134 73.5528 138.844 73.1908 138.523 72.8575C137.933 72.2458 137.195 71.7051 136.313 71.6904C135.796 71.7086 135.286 71.8208 134.81 72.0217C134.29 72.2101 133.771 72.4021 133.252 72.5924L130.122 73.7402L129.339 74.0271C129.2 74.0781 129.26 74.3026 129.4 74.2511Z" fill="#E4E4E4"/>
<path d="M98.7279 61.4005C97.929 61.0059 97.0397 60.8315 96.1514 60.8952C95.2631 60.9589 94.4076 61.2583 93.6729 61.7628C96.4421 62.2417 99.181 62.8825 101.876 63.6818C100.757 63.0245 99.8814 61.9947 98.7279 61.4005Z" fill="#F2F2F2"/>
<path d="M93.6574 61.76L93.3532 62.0078C93.4561 61.9211 93.563 61.8398 93.6729 61.7628L93.6574 61.76Z" fill="#F2F2F2"/>
<path d="M137.915 74.2625C137.643 73.8604 137.264 73.543 136.82 73.3464L136.393 73.3633C139.646 79.1255 144.04 84.1604 149.305 88.1591L137.915 74.2625Z" fill="#F2F2F2"/>
<path d="M97.7367 93.3791C97.55 93.6315 97.3516 93.8755 97.1412 94.1086C95.3106 94.4186 93.6125 94.7537 92.0568 95.0943C91.6069 95.1927 91.1693 95.2915 90.7442 95.3907L90.754 95.3602C90.6118 94.2561 90.7696 93.1339 91.2106 92.1121C91.2379 92.0494 91.266 91.9866 91.295 91.9248C91.5846 91.3007 91.9782 90.7306 92.4587 90.2388C93.2288 89.5123 94.0975 88.8986 95.0391 88.4161C96.7909 87.438 98.6169 86.5741 99.4557 84.8115C99.8041 86.2792 99.8309 87.8052 99.5341 89.2844C99.2374 90.7635 98.6241 92.1605 97.7367 93.3791Z" fill="#E6E6E6"/>
<path d="M88.235 88.6807C89.0559 87.8542 89.7531 86.913 90.305 85.8863C90.8553 84.8649 91.2589 83.7708 91.5039 82.6362C91.7522 81.4848 91.8278 80.3027 91.7282 79.129C91.5219 76.7385 90.6211 74.461 89.1372 72.5782C89.0465 72.4637 88.9538 72.351 88.8589 72.24C88.7532 72.1159 88.5767 72.2973 88.6817 72.4206C90.1949 74.2087 91.1518 76.4024 91.4341 78.7301C91.639 80.5088 91.4417 82.3111 90.8567 84.0029C90.2717 85.6948 89.314 87.2329 88.0548 88.503C87.9398 88.6186 88.12 88.7963 88.235 88.6807Z" fill="#CCCCCC"/>
<path d="M89.2408 72.7925C89.1382 72.755 89.0376 72.712 88.9396 72.6638C88.9347 72.6714 88.93 72.6792 88.9251 72.6869L89.2408 72.7925Z" fill="#E6E6E6"/>
<path d="M89.3251 69.5333C89.191 69.333 88.9967 69.1807 88.7704 69.0985C88.5442 69.0163 88.2977 69.0085 88.0667 69.0762C87.8357 69.1439 87.6322 69.2835 87.4857 69.4749C87.3392 69.6663 87.2573 69.8995 87.2519 70.1406C87.2308 70.5231 87.316 70.9038 87.498 71.2406C87.8119 71.8591 88.3178 72.3586 88.9396 72.6637C89.2595 72.2047 89.4953 71.6922 89.636 71.1503C89.7058 70.8745 89.7142 70.5866 89.6604 70.3071C89.6067 70.0276 89.4922 69.7634 89.3251 69.5333Z" fill="#CCCCCC"/>
<path d="M93.7124 72.6632C93.8881 71.9348 93.9041 71.1769 93.7594 70.4417C93.6146 69.7065 93.3126 69.0115 92.8741 68.4046C92.7972 69.8909 91.2521 70.8498 90.6949 72.2294C90.5244 72.661 90.4529 73.1255 90.4859 73.5885C90.5188 74.0515 90.6553 74.5012 90.8852 74.9042L90.98 76.0308C91.6512 75.7008 92.243 75.2288 92.7148 74.6474C93.1865 74.0661 93.5269 73.3891 93.7124 72.6632Z" fill="#CCCCCC"/>
<path d="M96.4983 76.856C95.7322 78.1308 93.9186 78.2475 92.779 79.2015C92.4258 79.5018 92.1445 79.8779 91.9561 80.3019C91.7676 80.7259 91.6768 81.187 91.6903 81.651L91.2447 82.6896C91.9925 82.7205 92.7379 82.5858 93.4279 82.2953C94.118 82.0047 94.7357 81.5654 95.2372 81.0085C95.7387 80.4516 96.1117 79.7909 96.3297 79.0732C96.5476 78.3555 96.6052 77.5985 96.4983 76.856Z" fill="#CCCCCC"/>
<path d="M89.3688 79.6896C88.7886 80.1635 88.3196 80.7597 87.9952 81.4357C87.6708 82.1118 87.4989 82.8512 87.4918 83.6014C87.4847 84.3516 87.6425 85.0941 87.954 85.7763C88.2656 86.4584 88.7232 87.0634 89.2943 87.5482L89.6679 86.4815C89.9913 86.1492 90.2359 85.7482 90.3837 85.3082C90.5314 84.8683 90.5785 84.4007 90.5215 83.94C90.3272 82.4645 89.0714 81.1478 89.3688 79.6896Z" fill="#CCCCCC"/>
<path d="M89.4528 94.0909C89.1038 94.9998 88.4311 95.7468 87.5646 96.1874C87.5202 96.2122 87.4757 96.2363 87.4313 96.2594C87.3944 96.2792 87.3566 96.2981 87.3189 96.3161C87.0145 96.3845 86.7074 96.4428 86.4022 96.5078L86.3997 96.5087C85.9441 96.6375 85.5144 96.763 85.1105 96.8851C84.8836 96.9529 84.6642 97.0197 84.4542 97.0857C84.4264 97.0935 84.3995 97.1022 84.3718 97.1108C84.3357 97.1221 84.3004 97.1334 84.2651 97.1438C84.2642 97.1421 84.2634 97.1413 84.2634 97.1396V97.1379C84.1011 96.7745 83.9439 96.4102 83.7934 96.0399C83.1997 94.6156 82.7284 93.1432 82.3845 91.6386C81.9562 89.8113 81.8371 87.9249 82.0323 86.0581C82.1827 84.7721 82.5342 83.5179 83.0738 82.3415C83.1516 82.1736 83.2331 82.0077 83.3182 81.8437C83.3439 81.792 83.3705 81.7411 83.3987 81.6902V81.6894C83.4012 81.6843 83.4045 81.6792 83.4078 81.6733L83.4203 81.6504V81.6495C83.4941 81.5121 83.571 81.3766 83.6511 81.2431C84.0482 80.5706 84.5179 79.944 85.0517 79.3745C85.9545 78.3958 87.0689 77.6374 88.3096 77.1577H88.3104C88.3701 77.1344 88.4305 77.1127 88.491 77.0911C88.468 77.1563 88.4449 77.2207 88.4227 77.2859C88.1199 78.1624 87.8874 79.0618 87.7273 79.9754C87.7152 80.0456 87.7032 80.1166 87.692 80.1876C87.3326 82.3917 87.3847 84.6436 87.8457 86.8287C87.8466 86.8346 87.8484 86.8405 87.8492 86.8464C87.9518 87.3302 88.0752 87.8088 88.2192 88.2822C88.2227 88.2957 88.2262 88.3083 88.2305 88.3218C88.2582 88.4136 88.2876 88.5054 88.317 88.5964C88.4026 88.8617 88.495 89.1249 88.594 89.3861C89.1711 90.9106 89.9707 92.5455 89.4528 94.0909Z" fill="#F0F0F0"/>
<path d="M88.5278 77.1634C88.4919 77.2043 88.4569 77.2451 88.4227 77.2859C87.688 78.1439 87.0502 79.0806 86.5209 80.0791C86.4944 80.1292 86.4678 80.1801 86.4421 80.231C85.7193 81.6248 85.2162 83.1225 84.9508 84.6708V84.6725C84.9484 84.6869 84.946 84.7012 84.9436 84.7165L84.9436 84.7182C84.8826 85.0801 84.8359 85.4453 84.8036 85.8103C84.7259 86.4986 84.7569 87.1948 84.8957 87.8734C85.025 88.4291 85.282 88.9469 85.6463 89.3854C85.6812 89.4299 85.7178 89.4735 85.756 89.5171C85.7858 89.5514 85.8164 89.5858 85.8479 89.6193C86.1411 89.9369 86.4646 90.2365 86.7387 90.5745C86.864 90.727 86.9756 90.8902 87.0722 91.0624C87.2251 91.3504 87.3155 91.6676 87.3376 91.9931C87.3596 92.3186 87.3127 92.6451 87.1999 92.9512C86.9006 93.699 86.4541 94.3788 85.8871 94.9499C85.3171 95.5922 84.716 96.2509 84.4541 97.0857C84.4264 97.0935 84.3995 97.1022 84.3718 97.1108C84.3357 97.1221 84.3004 97.1334 84.2651 97.1438C84.2737 97.1649 84.2831 97.1859 84.2926 97.2069C84.2829 97.1997 84.2752 97.1903 84.2699 97.1795C84.2647 97.1687 84.2622 97.1567 84.2626 97.1447C84.2624 97.143 84.2627 97.1412 84.2634 97.1396V97.1379C84.2633 97.1319 84.2641 97.1259 84.2657 97.1202C84.3314 96.8886 84.4211 96.6646 84.5331 96.4517C84.5331 96.45 84.5331 96.45 84.534 96.4491C85.1327 95.3092 86.2676 94.5034 86.851 93.3417C87.0298 93.0322 87.1354 92.6858 87.1599 92.329C87.1844 91.9722 87.1271 91.6146 86.9923 91.2834C86.8997 91.0889 86.7851 90.9057 86.6507 90.7374C86.3885 90.4001 86.0676 90.1039 85.7777 89.7947C85.7055 89.7185 85.6366 89.6405 85.5702 89.5608C85.2083 89.1433 84.9399 88.6529 84.7832 88.1226C84.6103 87.4532 84.5524 86.7592 84.612 86.0703C84.6395 85.6301 84.6906 85.1898 84.7619 84.7526C84.7707 84.6959 84.7804 84.6401 84.7909 84.5835V84.5826C85.2816 81.8372 86.4966 79.2735 88.3096 77.1577H88.3104C88.3438 77.1168 88.3788 77.076 88.4139 77.036C88.4865 76.9535 88.6004 77.0818 88.5278 77.1634Z" fill="white"/>
<path d="M84.8409 84.7729C84.3117 84.6488 83.8438 84.3402 83.5207 83.9022C83.1975 83.4642 83.0403 82.9253 83.0769 82.3818C83.0786 82.3597 83.0888 82.339 83.1054 82.3243C83.1219 82.3095 83.1436 82.3018 83.1657 82.3027C83.1879 82.3036 83.2088 82.3131 83.2241 82.3292C83.2394 82.3453 83.2479 82.3667 83.2477 82.3889C83.2126 82.895 83.3592 83.3969 83.6609 83.8042C83.9627 84.2114 84.3997 84.4972 84.8931 84.6098C85.0003 84.6344 84.9475 84.7974 84.8409 84.7729Z" fill="white"/>
<path d="M85.601 89.4133C86.55 88.8344 87.2466 87.9183 87.5517 86.8476C87.5819 86.7415 87.7446 86.794 87.7145 86.8999C87.3949 88.0136 86.6681 88.9655 85.6791 89.5657C85.5848 89.6228 85.5072 89.4701 85.601 89.4133Z" fill="white"/>
<path d="M86.4723 80.0587C86.6671 80.1495 86.8813 80.1904 87.0957 80.1777C87.3102 80.165 87.5181 80.0991 87.7008 79.9859C87.7943 79.9276 87.8719 80.0804 87.779 80.1383C87.5765 80.2624 87.3468 80.3349 87.1099 80.3494C86.873 80.364 86.6362 80.3202 86.4201 80.2219C86.399 80.2143 86.3815 80.199 86.3712 80.1789C86.361 80.1589 86.3587 80.1358 86.3649 80.1141C86.3719 80.0926 86.3871 80.0746 86.4072 80.0643C86.4274 80.0539 86.4508 80.0519 86.4723 80.0587Z" fill="white"/>
<path d="M99.7352 83.887C99.6774 83.9247 99.6213 83.9632 99.5635 84.0016L99.5627 84.0025C98.7944 84.5181 98.0692 85.0955 97.3942 85.7289L97.3934 85.7297C97.3399 85.7783 97.2872 85.8277 97.2354 85.8771C95.6294 87.4177 94.3213 89.2425 93.377 91.2597L93.3696 91.275C92.9948 92.0807 92.6815 92.9139 92.4324 93.7671C92.3063 94.1997 92.1887 94.6499 92.0568 95.0944C91.6069 95.1927 91.1693 95.2915 90.7442 95.3907C90.2043 95.516 89.6845 95.6416 89.1845 95.7677C88.9676 95.821 88.7547 95.8749 88.5456 95.9293C88.1511 96.1001 87.74 96.2298 87.3189 96.3161C87.0145 96.3845 86.7074 96.4428 86.4022 96.5079L86.3996 96.5087C85.9441 96.6375 85.5144 96.763 85.1105 96.8851C84.8836 96.9529 84.6642 97.0198 84.4542 97.0857C84.4264 97.0935 84.3995 97.1022 84.3718 97.1109C84.4239 96.8917 84.4768 96.6709 84.5331 96.4517C84.5331 96.45 84.5331 96.45 84.534 96.4492C85.0117 94.468 85.7222 92.5507 86.6507 90.7374C86.6789 90.6832 86.7071 90.628 86.7387 90.5746C87.1216 89.8603 87.5557 89.1748 88.0376 88.5236C88.0959 88.4429 88.1567 88.363 88.2184 88.2831L88.2192 88.2822C88.4776 87.9491 88.7504 87.6262 89.0376 87.3136C89.0877 87.2583 89.1395 87.2029 89.1913 87.1485C89.2163 87.1221 89.2422 87.0957 89.2681 87.0693C89.365 86.9688 89.4644 86.8692 89.5656 86.773C89.7243 86.6196 89.8882 86.4705 90.0555 86.3255C90.7279 85.7456 91.4609 85.2404 92.2418 84.8185C92.2468 84.816 92.2527 84.8125 92.2577 84.81C94.5113 83.5971 97.1265 83.1193 99.5494 83.8303C99.6119 83.8492 99.6727 83.8673 99.7352 83.887Z" fill="#F0F0F0"/>
<path d="M85.1105 96.8851C85.5273 96.7188 85.9589 96.5928 86.3996 96.5087C85.9441 96.6375 85.5144 96.763 85.1105 96.8851Z" fill="white"/>
<path d="M99.7216 83.9673C99.6686 83.9779 99.6156 83.9893 99.5635 84.0016C98.4615 84.2437 97.3895 84.607 96.367 85.0847C96.3149 85.1087 96.2637 85.1328 96.2134 85.1577C94.799 85.8348 93.4978 86.7273 92.3559 87.8035L92.355 87.8043C92.3438 87.8139 92.3332 87.8241 92.3233 87.835L92.3224 87.8358C92.0566 88.0872 91.8005 88.3497 91.5539 88.6234C91.0784 89.1261 90.6849 89.7007 90.3878 90.3262C90.1579 90.8481 90.0522 91.4165 90.079 91.9864C90.0811 92.043 90.0841 92.1004 90.0888 92.1578C90.0917 92.2033 90.0955 92.2489 90.1 92.2953C90.1634 92.9213 90.3001 93.5552 90.2101 94.1859C90.1594 94.5069 90.0419 94.8137 89.8652 95.0862C89.6885 95.3587 89.4566 95.5909 89.1845 95.7677C88.9676 95.821 88.7546 95.8749 88.5456 95.9292C88.5859 95.912 88.6253 95.8931 88.6648 95.8733C88.9933 95.7339 89.2856 95.521 89.5195 95.2509C89.7534 94.9808 89.9225 94.6607 90.0141 94.3151C90.1486 93.6798 90.0076 93.0265 89.9383 92.3929C89.9273 92.2908 89.9189 92.1904 89.9138 92.09C89.9131 92.0855 89.9128 92.081 89.9129 92.0765C89.875 91.5261 89.9554 90.9739 90.1488 90.4574C90.413 89.8187 90.7836 89.2297 91.2447 88.7154C91.5317 88.3803 91.8365 88.0594 92.1558 87.7545C92.1968 87.7136 92.2386 87.6744 92.2804 87.6361C93.448 86.5519 94.7741 85.653 96.2127 84.9703C97.2783 84.4649 98.3977 84.0824 99.5494 83.8303C99.6016 83.8189 99.6545 83.8074 99.7067 83.7969C99.8143 83.7749 99.8284 83.9453 99.7216 83.9673Z" fill="white"/>
<path d="M92.2066 87.8179C91.8587 87.3994 91.6704 86.8706 91.6755 86.3259C91.6806 85.7812 91.8787 85.256 92.2344 84.8442C92.3067 84.7611 92.4389 84.8697 92.3665 84.9529C92.0346 85.3358 91.8501 85.825 91.8464 86.3323C91.8427 86.8395 92.02 87.3314 92.3463 87.7191C92.4171 87.8035 92.2771 87.9017 92.2066 87.8179Z" fill="white"/>
<path d="M90.0263 91.9816C91.1318 92.0922 92.2382 91.7811 93.125 91.1103C93.2128 91.0438 93.3112 91.1839 93.2235 91.2503C92.2994 91.9466 91.1473 92.268 89.9972 92.1504C89.8876 92.1391 89.9173 91.9704 90.0263 91.9816Z" fill="white"/>
<path d="M96.3409 85.0384C96.4419 85.2284 96.5883 85.3903 96.7672 85.5096C96.946 85.6288 97.1516 85.7017 97.3655 85.7216C97.4752 85.7315 97.4454 85.9003 97.3364 85.8905C97.1002 85.8673 96.8732 85.7866 96.6753 85.6553C96.4774 85.5239 96.3147 85.346 96.2012 85.1371C96.1889 85.1183 96.1841 85.0955 96.1879 85.0733C96.1918 85.0512 96.2039 85.0313 96.2218 85.0177C96.2404 85.0048 96.2633 84.9997 96.2856 85.0035C96.3079 85.0074 96.3278 85.0199 96.3409 85.0384Z" fill="white"/>
<path d="M108.714 89.8738C108.467 90.9783 107.876 91.9751 107.025 92.7196C106.963 92.7737 106.9 92.8264 106.836 92.8777C106.678 92.8916 106.521 92.9061 106.366 92.9214C106.238 92.9332 106.11 92.9454 105.984 92.9581L105.962 92.9602L105.946 92.8215L105.881 92.2613C105.633 91.8548 105.479 91.3974 105.431 90.9232C105.383 90.4489 105.442 89.9698 105.603 89.5215C105.862 88.9223 106.206 88.3636 106.624 87.8628C107.171 87.1347 107.703 86.415 107.722 85.5281C108.33 86.3158 108.704 87.2594 108.802 88.2505C108.858 88.7928 108.829 89.3407 108.714 89.8738Z" fill="#E6E6E6"/>
<path d="M111.511 87.6603C110.278 88.559 110.32 90.4292 109.448 91.6829C109.182 92.0612 108.836 92.3757 108.434 92.6038C108.325 92.6663 108.211 92.7224 108.095 92.7716C107.668 92.8049 107.248 92.8402 106.836 92.8777C106.678 92.8915 106.521 92.9061 106.366 92.9214C106.238 92.9332 106.11 92.9454 105.984 92.9581C105.983 92.9117 105.983 92.8645 105.985 92.818C106.011 91.5811 106.465 90.3917 107.269 89.4528C107.307 89.4085 107.345 89.3655 107.385 89.3225C107.792 88.8862 108.271 88.5236 108.802 88.2504C109.636 87.8154 110.572 87.6116 111.511 87.6603Z" fill="#F2F2F2"/>
<path d="M106.512 92.4879L106.416 92.7757L106.366 92.9213C106.238 92.9331 106.11 92.9454 105.984 92.9581L105.962 92.9602C105.821 92.9747 105.682 92.9886 105.544 93.0032C105.507 92.9608 105.471 92.9179 105.436 92.8742C104.557 91.8068 104.135 90.4339 104.262 89.0556C104.39 87.6773 105.056 86.4056 106.116 85.5183C105.961 86.3303 106.272 87.0931 106.624 87.8628C106.883 88.3737 107.099 88.9056 107.269 89.4528C107.306 89.5892 107.334 89.7276 107.355 89.8675C107.42 90.3396 107.378 90.8204 107.232 91.274C107.086 91.7276 106.84 92.1425 106.512 92.4879Z" fill="#F2F2F2"/>
<path d="M130.946 93.0384C130.921 93.0777 130.896 93.1159 130.869 93.1536C130.807 93.1468 130.744 93.1406 130.682 93.1339C130.573 93.1227 130.465 93.1114 130.357 93.1002C130.343 93.0991 130.33 93.0974 130.316 93.0962L130.249 92.9654L130.123 92.7216C129.819 92.4853 129.571 92.1833 129.399 91.8379C129.226 91.4925 129.134 91.1127 129.128 90.7266C129.153 90.1978 129.253 89.6753 129.427 89.1753C129.633 88.467 129.829 87.7688 129.59 87.092C130.276 87.5143 130.829 88.1216 131.187 88.8444C131.385 89.2387 131.519 89.6618 131.585 90.0981C131.731 91.1233 131.504 92.1669 130.946 93.0384Z" fill="#E6E6E6"/>
<path d="M132.659 91.2573C132.562 91.631 132.382 91.978 132.133 92.2726C131.884 92.5672 131.572 92.8018 131.221 92.9592L131.134 93.0592L131.036 93.1721C130.981 93.1659 130.925 93.1597 130.869 93.1535C130.807 93.1468 130.744 93.1406 130.682 93.1339C130.573 93.1226 130.465 93.1114 130.357 93.1002C130.341 93.058 130.327 93.0154 130.313 92.9721C130.027 92.0652 130.047 91.0891 130.37 90.1947C130.386 90.1503 130.403 90.1065 130.42 90.0632C130.604 89.616 130.864 89.2037 131.187 88.8444C131.694 88.2744 132.344 87.8507 133.07 87.6172C132.393 88.6523 132.96 90.0571 132.659 91.2573Z" fill="#F2F2F2"/>
<path d="M130.678 93.0097L130.682 93.1339C130.573 93.1226 130.465 93.1114 130.357 93.1002C130.343 93.099 130.33 93.0973 130.316 93.0962C130.05 93.0692 129.785 93.044 129.522 93.0204C129.463 92.976 129.405 92.9299 129.348 92.8811C128.587 92.2478 128.072 91.3668 127.894 90.3918C127.715 89.4169 127.884 88.4099 128.37 87.5469C128.485 88.2063 128.939 88.6944 129.427 89.1752C129.769 89.4882 130.084 89.8292 130.37 90.1946C130.437 90.2875 130.499 90.3843 130.554 90.4844C130.738 90.8236 130.844 91.1999 130.863 91.5854C130.883 91.971 130.815 92.356 130.666 92.712L130.678 93.0097Z" fill="#F2F2F2"/>
<path d="M153.135 97.9709C153.129 97.9881 153.119 98.0031 153.104 98.0138C153.09 98.0245 153.073 98.0301 153.055 98.03C153.046 98.0298 153.037 98.0284 153.029 98.0258C145.536 95.6511 137.826 94.0253 130.013 93.1721C129.929 93.1628 129.845 93.1535 129.762 93.1442C129.667 93.1341 129.574 93.1248 129.48 93.1147C129.317 93.0978 129.154 93.0809 128.991 93.064C128.971 93.0623 128.95 93.0598 128.93 93.0581C128.53 93.0176 128.132 92.9796 127.736 92.9441C121.125 92.3461 114.475 92.2998 107.857 92.8056C107.336 92.8461 106.825 92.8892 106.324 92.9348C106.132 92.9517 105.94 92.9694 105.752 92.988C105.595 93.0024 105.44 93.0173 105.286 93.0328L105.259 93.0353C105.088 93.053 104.918 93.0699 104.75 93.0876C104.062 93.1594 103.393 93.2354 102.743 93.3156C90.123 94.8668 82.2413 97.9928 82.163 98.0241C82.1422 98.0322 82.1191 98.0318 82.0986 98.0229C82.0782 98.014 82.062 97.9974 82.0538 97.9766C82.0456 97.9559 82.0459 97.9327 82.0546 97.9121C82.0634 97.8916 82.0799 97.8754 82.1006 97.867C82.1789 97.8358 90.0767 94.703 102.716 93.1493C103.349 93.0716 103.983 92.9987 104.619 92.9306C104.826 92.9086 105.032 92.8875 105.239 92.8664C105.255 92.8647 105.271 92.8639 105.287 92.8622C105.462 92.8444 105.636 92.8276 105.811 92.8107C106.059 92.787 106.306 92.7642 106.554 92.7423C107.125 92.6908 107.697 92.6438 108.27 92.6013C113.923 92.1814 119.599 92.1673 125.254 92.559C125.994 92.6105 126.734 92.6691 127.474 92.7347C127.926 92.7735 128.377 92.8166 128.829 92.8613C128.861 92.8647 128.893 92.8681 128.926 92.8715C129.109 92.8892 129.291 92.9086 129.473 92.928C129.608 92.9416 129.742 92.9559 129.877 92.9711C129.971 92.9812 130.066 92.9914 130.159 93.0024C137.94 93.8692 145.616 95.4979 153.08 97.8653C153.09 97.8685 153.1 97.8738 153.109 97.8809C153.117 97.888 153.124 97.8967 153.129 97.9065C153.135 97.9163 153.138 97.9271 153.139 97.9382C153.139 97.9492 153.138 97.9603 153.135 97.9709Z" fill="#CCCCCC"/>
<path d="M104.484 76.3466C104.682 77.0668 105.127 77.6937 105.742 78.1163C105.979 78.2785 106.26 78.434 106.342 78.7103C106.384 78.8865 106.358 79.0724 106.268 79.2297C106.178 79.3849 106.069 79.528 105.943 79.6553L105.931 79.6986C105.323 79.3744 104.813 78.8915 104.455 78.301C104.281 78.0037 104.192 77.6643 104.197 77.3197C104.202 76.9752 104.301 76.6386 104.484 76.3466Z" fill="#F2F2F2"/>
<path d="M134.193 79.4832C134.019 79.1859 133.93 78.8465 133.935 78.5019C133.94 78.1574 134.039 77.8208 134.221 77.5287C134.419 78.249 134.865 78.8759 135.479 79.2985C135.717 79.4606 135.998 79.6162 136.079 79.8925C136.122 80.0687 136.096 80.2546 136.006 80.4118C135.916 80.5671 135.806 80.7101 135.68 80.8375L135.669 80.8808C135.06 80.5566 134.55 80.0737 134.193 79.4832Z" fill="#F2F2F2"/>
<path d="M121.472 94.5981C121.298 94.3008 121.209 93.9614 121.214 93.6169C121.219 93.2723 121.318 92.9357 121.501 92.6437C121.699 93.3639 122.144 93.9908 122.759 94.4134C122.996 94.5756 123.277 94.7311 123.359 95.0075C123.401 95.1836 123.375 95.3695 123.285 95.5268C123.195 95.682 123.086 95.8251 122.96 95.9525L122.948 95.9957C122.34 95.6715 121.83 95.1887 121.472 94.5981Z" fill="#F2F2F2"/>
<path d="M139.289 60.8616C141.662 60.8616 143.586 58.9336 143.586 56.5551C143.586 54.1767 141.662 52.2487 139.289 52.2487C136.917 52.2487 134.993 54.1767 134.993 56.5551C134.993 58.9336 136.917 60.8616 139.289 60.8616Z" fill="#FF6584"/>
<path d="M147.043 53.251C144.96 52.9689 142.583 54.097 142.044 56.1324C141.908 55.7705 141.66 55.4613 141.338 55.2495C141.015 55.0377 140.633 54.9342 140.248 54.954C139.863 54.9738 139.493 55.1159 139.194 55.3597C138.895 55.6036 138.68 55.9365 138.582 56.3105L138.82 56.4816C143.282 57.4488 147.901 57.4279 152.354 56.4203C150.906 54.8945 149.125 53.5331 147.043 53.251Z" fill="#F0F0F0"/>
<path d="M138.113 58.993C136.031 58.7109 133.654 59.839 133.114 61.8744C132.978 61.5125 132.731 61.2033 132.408 60.9915C132.085 60.7797 131.703 60.6762 131.318 60.696C130.933 60.7158 130.564 60.8579 130.264 61.1018C129.965 61.3456 129.75 61.6785 129.652 62.0525L129.89 62.2236C134.353 63.1908 138.972 63.1699 143.425 62.1623C141.976 60.6365 140.195 59.2751 138.113 58.993Z" fill="#F0F0F0"/>
<path d="M146.656 91.8209C146.554 91.7825 146.453 91.7387 146.356 91.6896C146.351 91.6973 146.346 91.705 146.341 91.7126L146.656 91.8209Z" fill="#E6E6E6"/>
<path d="M101.338 58.5418C101.164 58.2445 101.075 57.9051 101.08 57.5606C101.085 57.216 101.184 56.8795 101.367 56.5874C101.565 57.3076 102.01 57.9345 102.625 58.3572C102.862 58.5193 103.143 58.6748 103.225 58.9512C103.267 59.1273 103.241 59.3132 103.151 59.4705C103.061 59.6257 102.952 59.7688 102.826 59.8962L102.814 59.9394C102.206 59.6152 101.696 59.1324 101.338 58.5418Z" fill="#F2F2F2"/>
<path d="M153.055 109.598C153.046 109.598 153.037 109.597 153.029 109.594C135.443 104.007 116.801 102.597 98.5766 105.475C96.8692 105.749 95.1571 106.066 93.4881 106.417C93.062 106.507 92.6199 106.603 92.1742 106.703C91.6418 106.821 91.1166 106.944 90.613 107.066C90.3955 107.118 90.1822 107.17 89.9732 107.222C89.6566 107.301 89.3353 107.382 88.9909 107.472C88.6061 107.571 88.2151 107.676 87.8286 107.782L87.8243 107.783C87.3877 107.903 86.9534 108.026 86.5335 108.148C86.3062 108.214 86.0867 108.279 85.8764 108.343C85.8529 108.35 85.8321 108.356 85.811 108.362L85.7659 108.376C85.7397 108.384 85.7139 108.392 85.688 108.4L85.6864 108.4L85.6181 108.421C85.5365 108.446 85.457 108.47 85.3788 108.494C83.311 109.133 82.1743 109.588 82.1631 109.592C82.1528 109.596 82.1419 109.598 82.1308 109.598C82.1197 109.598 82.1088 109.596 82.0986 109.591C82.0885 109.587 82.0792 109.581 82.0715 109.573C82.0638 109.565 82.0577 109.556 82.0536 109.545C82.0494 109.535 82.0474 109.524 82.0475 109.513C82.0476 109.502 82.05 109.491 82.0543 109.481C82.0587 109.47 82.065 109.461 82.0729 109.453C82.0808 109.446 82.0901 109.44 82.1004 109.435C82.1117 109.431 83.254 108.974 85.3292 108.333C85.4078 108.309 85.4875 108.285 85.5693 108.26L85.6328 108.24L85.6394 108.238C85.6651 108.23 85.6907 108.223 85.7168 108.215L85.7621 108.201C85.7846 108.194 85.8068 108.187 85.8296 108.181C86.0384 108.117 86.2586 108.052 86.4865 107.986C86.9066 107.863 87.3413 107.74 87.7783 107.621L87.7824 107.62C88.1703 107.513 88.5627 107.408 88.9487 107.308C89.2936 107.219 89.6155 107.137 89.9327 107.058C90.1426 107.006 90.3562 106.954 90.5737 106.902C91.0779 106.779 91.6042 106.657 92.1375 106.538C92.5839 106.438 93.0267 106.342 93.4535 106.252C95.1251 105.901 96.8399 105.583 98.5499 105.308C116.8 102.426 135.468 103.838 153.08 109.433C153.099 109.439 153.116 109.452 153.126 109.469C153.137 109.486 153.141 109.507 153.138 109.527C153.135 109.547 153.125 109.565 153.109 109.578C153.094 109.591 153.075 109.598 153.055 109.598Z" fill="#CCCCCC"/>
<path d="M98.3636 99.4293C99.3963 99.0069 104.291 98.448 105.403 98.5306C105.436 98.5313 105.467 98.5192 105.492 98.4968C105.516 98.4745 105.53 98.4437 105.532 98.4109C105.534 98.3781 105.523 98.3459 105.501 98.321C105.48 98.2961 105.45 98.2806 105.417 98.2776C104.258 98.1915 99.3216 98.765 98.2463 99.2048C98.096 99.2663 98.2138 99.4906 98.3636 99.4293Z" fill="#CCCCCC"/>
<path d="M84.1961 102.666C85.2397 102.265 86.3615 102.112 87.4739 102.219C87.5066 102.22 87.5386 102.209 87.5631 102.187C87.5876 102.165 87.6027 102.134 87.6052 102.102C87.6077 102.069 87.5974 102.036 87.5765 102.011C87.5556 101.986 87.5257 101.97 87.4931 101.966C86.3354 101.858 85.1683 102.02 84.0834 102.439C83.9319 102.497 84.0451 102.724 84.1961 102.666Z" fill="#CCCCCC"/>
<path d="M125.092 98.2971C126.193 98.1047 127.323 98.1701 128.394 98.4881C128.426 98.4957 128.46 98.4907 128.488 98.474C128.516 98.4572 128.537 98.4302 128.546 98.3985C128.554 98.3668 128.55 98.333 128.535 98.3041C128.519 98.2753 128.493 98.2537 128.461 98.2438C127.346 97.9151 126.17 97.8497 125.025 98.0528C124.865 98.081 124.932 98.3252 125.092 98.2971Z" fill="#CCCCCC"/>
<path d="M149.82 85.1806L151.067 84.1911C150.955 83.3615 150.643 82.5717 150.157 81.8904C150.068 83.3761 148.515 84.3221 147.946 85.6969C147.772 86.127 147.697 86.591 147.726 87.0542C147.755 87.5175 147.888 87.9683 148.114 88.3732L148.2 89.5005C148.874 89.1761 149.469 88.7091 149.946 88.1317C150.422 87.5543 150.768 86.8802 150.96 86.1559C151.063 85.7485 151.115 85.3296 151.114 84.9092C150.487 85.0783 149.82 85.1806 149.82 85.1806Z" fill="#025DAA"/>
<path d="M146.876 95.1325C146.379 95.2469 145.945 95.3135 145.945 95.3135L146.714 94.703C146.52 94.2082 146.466 93.6693 146.558 93.1458C145.974 93.6148 145.5 94.207 145.17 94.8804C144.84 95.5537 144.662 96.2917 144.649 97.0418C144.635 97.7919 144.787 98.5357 145.093 99.2204C145.399 99.9051 145.851 100.514 146.418 101.004L146.801 99.9399C147.127 99.6103 147.375 99.2114 147.526 98.7727C147.678 98.334 147.729 97.8668 147.675 97.4057C147.579 96.6195 147.181 95.8757 146.876 95.1325Z" fill="#025DAA"/>
<path d="M146.35 82.7536C146.088 82.9843 145.84 83.2308 145.608 83.4918L146.005 82.5724C145.856 82.5149 145.696 82.4906 145.536 82.5012C145.377 82.5118 145.222 82.5571 145.082 82.6339C144.921 82.7371 144.787 82.8763 144.69 83.0404C144.593 83.2045 144.535 83.389 144.521 83.5794C144.496 83.9616 144.578 84.3431 144.758 84.6814C145.066 85.3025 145.568 85.8062 146.187 86.1165C146.511 85.6602 146.751 85.1497 146.896 84.609C146.968 84.3337 146.979 84.0459 146.928 83.766C146.876 83.486 146.764 83.2209 146.599 82.9894C146.527 82.8999 146.443 82.8205 146.35 82.7536Z" fill="#025DAA"/>
<path d="M152.515 92.8647L153.671 91.9475C153.767 91.4275 153.78 90.8958 153.711 90.3717C152.934 91.6402 151.12 91.7417 149.972 92.6861C149.617 92.9834 149.332 93.3572 149.14 93.7796C148.948 94.202 148.854 94.6624 148.863 95.1265L148.409 96.1613C149.156 96.1932 149.901 96.0625 150.592 95.778C151.284 95.4935 151.906 95.0622 152.415 94.5136C152.897 93.9827 153.262 93.3562 153.486 92.6747C152.973 92.7946 152.515 92.8647 152.515 92.8647Z" fill="#025DAA"/>
<path d="M146.192 100.795C145.971 101.08 145.738 101.355 145.49 101.619C145.582 101.647 145.672 101.674 145.759 101.701C145.976 101.465 146.182 101.221 146.378 100.969C146.411 100.926 146.444 100.883 146.477 100.839C146.835 100.367 147.158 99.8694 147.442 99.3498C147.992 98.3505 148.401 97.2794 148.655 96.1672C148.661 96.1478 148.665 96.1292 148.669 96.1098C148.737 95.8041 148.794 95.495 148.837 95.1851C148.847 95.1227 148.855 95.0593 148.864 94.9968C148.885 94.8254 148.902 94.654 148.917 94.4826C148.968 93.8577 148.97 93.2297 148.922 92.6046C148.839 91.5355 148.616 90.482 148.26 89.471C148.234 89.3993 148.209 89.3275 148.181 89.2565C148.166 89.2143 148.15 89.1721 148.134 89.1299C147.705 88.0177 147.116 86.9742 146.386 86.0326C146.359 85.998 146.332 85.9642 146.305 85.9304C146.241 85.8502 146.176 85.7708 146.11 85.6923C146.1 85.6786 146.086 85.6677 146.07 85.6605C146.054 85.6532 146.037 85.6499 146.019 85.6507C146.002 85.6515 145.985 85.6565 145.97 85.6652C145.955 85.6739 145.942 85.6861 145.933 85.7008C145.912 85.7241 145.9 85.7543 145.9 85.7857C145.9 85.8171 145.911 85.8475 145.931 85.8713C145.984 85.9347 146.037 85.9988 146.088 86.0638C146.151 86.1407 146.212 86.2192 146.271 86.2986C147.572 88.0188 148.387 90.0585 148.631 92.2035C148.777 93.5255 148.698 94.8627 148.396 96.1579H148.395C148.215 96.9383 147.957 97.6985 147.624 98.4268C147.558 98.5721 147.488 98.7159 147.416 98.8583C147.229 99.229 147.023 99.5895 146.798 99.9383C146.609 100.233 146.407 100.518 146.192 100.795Z" fill="#3F3D56"/>
<path d="M143.962 102.012C145.063 101.82 146.193 101.885 147.265 102.204C147.296 102.211 147.33 102.206 147.358 102.189C147.386 102.173 147.407 102.146 147.416 102.114C147.424 102.082 147.421 102.048 147.405 102.02C147.389 101.991 147.363 101.969 147.332 101.959C146.216 101.631 145.04 101.565 143.895 101.768C143.735 101.796 143.803 102.041 143.962 102.012Z" fill="#CCCCCC"/>
<path d="M55.1303 121.881V135.968C55.1316 136.867 55.4885 137.729 56.1228 138.365C56.757 139.001 57.6168 139.358 58.5137 139.36H180.278C181.175 139.358 182.035 139.001 182.669 138.365C183.303 137.729 183.66 136.867 183.662 135.968V121.881H55.1303Z" fill="#F0F0F0"/>
<path d="M42.7147 57.4413V51.7304C42.7167 50.7247 42.5209 49.7283 42.1384 48.7985C41.7559 47.8686 41.1944 47.0234 40.4858 46.3113C39.7772 45.5992 38.9355 45.034 38.0088 44.6482C37.0821 44.2624 36.0887 44.0635 35.0852 44.0629C34.0818 44.0622 33.0881 44.2599 32.1609 44.6445C31.2338 45.0291 30.3913 45.5931 29.6818 46.3044C28.9723 47.0156 28.4097 47.86 28.026 48.7894C27.6423 49.7188 27.4452 50.7148 27.4459 51.7206V51.7304C26.1004 54.541 26.9422 55.8772 27.4459 57.4413C27.4464 57.7136 27.5545 57.9747 27.7467 58.1673C27.9388 58.3599 28.1993 58.4683 28.471 58.4687H41.6892C41.961 58.4684 42.2216 58.3601 42.4138 58.1675C42.6061 57.9749 42.7143 57.7137 42.7147 57.4413Z" fill="#2F2E41"/>
<path d="M33.6668 80.5893L33.3133 82.2777L33.0129 88.5055L45.0875 86.8667L46.0145 79.6554L44.7329 77.5447L33.6668 80.5893Z" fill="#FFB6B6"/>
<path d="M37.5835 58.0977C40.7396 58.0977 43.2981 55.5331 43.2981 52.3696C43.2981 49.206 40.7396 46.6415 37.5835 46.6415C34.4274 46.6415 31.8688 49.206 31.8688 52.3696C31.8688 55.5331 34.4274 58.0977 37.5835 58.0977Z" fill="#FFB7B7"/>
<path d="M28.974 72.8283L27.4027 68.736C27.4019 67.0227 27.9803 65.3598 29.0435 64.0184C30.1068 62.677 31.5921 61.7364 33.2573 61.3499L33.2788 61.3449L34.4089 59.8187L38.9998 60.2791L39.8413 62.0029L43.168 63.9884L46.9515 68.4291C47.507 68.8002 47.9805 69.2819 48.3425 69.8443C48.7044 70.4066 48.9472 71.0375 49.0556 71.6978C49.4904 74.482 47.5457 77.2678 47.3143 77.5872L46.7183 80.952L32.9366 82.9316L32.8314 82.945L28.974 72.8283Z" fill="#025DAA"/>
<path d="M31.6029 53.8713C31.6547 53.8631 31.7065 53.8521 31.7582 53.8439C32.6497 53.6854 33.541 53.5297 34.4297 53.3685L34.5115 51.3493L35.5882 53.1581C38.0444 53.9751 40.3424 53.5133 42.5041 52.4941C43.2171 52.1548 43.9089 51.7725 44.5758 51.3493C44.3942 50.2325 43.9659 49.1705 43.322 48.2411C42.6782 47.3116 41.8353 46.5382 40.8548 45.9773C40.7731 45.9309 40.694 45.8899 40.6122 45.8489L40.6112 45.8487L40.6103 45.8481L40.6097 45.8472L40.6095 45.8462C40.4705 45.7806 40.3287 45.7177 40.187 45.6604C39.0772 45.2257 37.8672 45.1156 36.6975 45.3429C35.5278 45.5702 34.4465 46.1257 33.5792 46.9446C31.8346 48.6141 31.0495 51.3711 31.6029 53.8713Z" fill="#2F2E41"/>
<path d="M61.1416 158.884L64.4879 157.531L60.8772 143.95L55.9382 145.946L61.1416 158.884Z" fill="#FFB6B6"/>
<path d="M59.6462 157.564L64.809 155.11L65.7226 157.382L72.152 158.832C72.4696 158.903 72.756 159.075 72.9695 159.321C73.183 159.567 73.3123 159.876 73.3387 160.201C73.365 160.526 73.2869 160.851 73.1159 161.129C72.9448 161.406 72.6897 161.622 72.3878 161.744L66.0898 164.288L64.1006 162.48L64.5804 164.898L62.2058 165.857L59.6462 157.564Z" fill="#2F2E41"/>
<path d="M27.7524 158.526L31.3605 158.526L33.077 144.577L27.7518 144.577L27.7524 158.526Z" fill="#FFB6B6"/>
<path d="M25.7903 129.902L25.7902 129.865L27.1455 127.524L25.7616 124.477L25.6633 105.957C25.1183 92.5732 32.8644 86.1398 32.9254 86.0765L33.0934 85.9015L45.5161 85.5967C45.5161 85.5967 66.9299 148.608 63.0053 149.227L57.3803 152.328L47.6282 125.842L47.0386 124.326C45.9823 124.131 43.2362 113.449 43.2362 113.449C42.7759 112.901 42.7996 111.412 42.7996 111.412L39.2027 107.626L35.8875 125.074L36.7073 130.278L36.0289 132.068L33.322 152.809L33.2912 153.047H25.9132L25.7903 129.902Z" fill="#2F2E41"/>
<path d="M26.5306 156.742L32.2342 156.401V158.851L37.6568 162.604C37.9247 162.79 38.1264 163.056 38.2325 163.365C38.3387 163.673 38.3437 164.007 38.2468 164.319C38.1499 164.63 37.9563 164.903 37.6941 165.096C37.4319 165.289 37.115 165.394 36.7895 165.393H29.9991L28.8287 162.971L28.3717 165.393H25.8114L26.5306 156.742Z" fill="#2F2E41"/>
<path d="M58.2281 89.5664C57.8654 89.6063 57.4983 89.5661 57.1527 89.4485C56.8071 89.3309 56.4915 89.1387 56.228 88.8856C55.9646 88.6325 55.7597 88.3245 55.6278 87.9835C55.4959 87.6424 55.4402 87.2765 55.4646 86.9115L44.0506 84.1597L35.7097 75.2638L40.2374 72.2617L46.1352 79.5981L58.3034 84.5705C58.9124 84.6523 59.4703 84.9552 59.8714 85.4218C60.2724 85.8883 60.4888 86.4861 60.4796 87.102C60.4703 87.7178 60.236 88.3088 59.821 88.763C59.406 89.2172 58.8393 89.503 58.2281 89.5664Z" fill="#FFB6B6"/>
<path d="M29.8601 66.3053C29.8601 66.3053 28.7132 66.9578 30.5464 69.0713C32.0139 70.7634 39.5079 80.7056 42.093 82.4306C41.9408 82.8394 41.9286 83.2873 42.0583 83.7038C42.188 84.1203 42.4522 84.4817 42.8094 84.731L46.9642 79.7796C46.768 78.327 45.7928 78.3777 45.2418 78.5404L43.2801 74.7235L37.2771 65.545L30.6808 65.8189L29.8601 66.3053Z" fill="#025DAA"/>
<path d="M183.453 144.586C190.558 144.586 196.318 138.812 196.318 131.691C196.318 124.569 190.558 118.796 183.453 118.796C176.348 118.796 170.589 124.569 170.589 131.691C170.589 138.812 176.348 144.586 183.453 144.586Z" fill="#025DAA"/>
<path d="M181.698 138.402C181.476 138.402 181.257 138.35 181.058 138.25C180.86 138.151 180.687 138.006 180.554 137.828L177.044 133.137C176.931 132.987 176.849 132.815 176.803 132.633C176.756 132.45 176.746 132.26 176.772 132.074C176.799 131.887 176.862 131.708 176.958 131.546C177.053 131.384 177.18 131.242 177.33 131.129C177.481 131.016 177.652 130.934 177.834 130.887C178.016 130.841 178.205 130.83 178.391 130.857C178.577 130.884 178.756 130.947 178.918 131.043C179.08 131.139 179.221 131.266 179.334 131.416L181.63 134.485L187.527 125.618C187.631 125.461 187.765 125.327 187.921 125.222C188.078 125.117 188.253 125.044 188.437 125.007C188.621 124.97 188.811 124.97 188.996 125.006C189.18 125.043 189.355 125.115 189.512 125.22C189.668 125.324 189.802 125.459 189.907 125.615C190.012 125.772 190.084 125.948 190.121 126.132C190.158 126.317 190.158 126.507 190.122 126.692C190.085 126.877 190.013 127.053 189.908 127.209L182.889 137.763C182.762 137.954 182.591 138.112 182.391 138.223C182.191 138.334 181.967 138.395 181.738 138.401C181.725 138.402 181.712 138.402 181.698 138.402Z" fill="white"/>
<path d="M56.9249 161.078L54.7564 157.585L54.3233 159.581C54.2474 159.931 54.1714 160.286 54.1011 160.639C53.4852 160.111 52.8299 159.624 52.1887 159.156C50.2199 157.724 48.2521 156.29 46.2852 154.854L46.9011 158.434C47.2808 160.639 47.6774 162.888 48.6168 164.904C48.7208 165.132 48.8333 165.358 48.9543 165.578H58.1062C58.1798 165.373 58.2307 165.162 58.2581 164.946C58.2604 164.932 58.2613 164.918 58.2608 164.904C58.4043 163.537 57.6505 162.248 56.9249 161.078Z" fill="#F0F0F0"/>
<path d="M77.8897 165.913L0.334879 166C0.29082 166 0.24717 165.992 0.206429 165.975C0.165687 165.958 0.128658 165.933 0.097458 165.902C0.0662585 165.871 0.0415035 165.834 0.0246134 165.793C0.00772328 165.752 -0.000972748 165.708 -0.000972748 165.664C-0.000972748 165.62 0.00772328 165.576 0.0246134 165.536C0.0415035 165.495 0.0662585 165.458 0.097458 165.427C0.128658 165.395 0.165687 165.371 0.206429 165.354C0.24717 165.337 0.29082 165.329 0.334879 165.329L77.8897 165.242C77.9783 165.242 78.0632 165.278 78.1258 165.341C78.1884 165.404 78.2236 165.489 78.2236 165.578C78.2236 165.667 78.1884 165.752 78.1258 165.815C78.0632 165.878 77.9783 165.913 77.8897 165.913Z" fill="#CACACA"/>
</g>
<defs>
<clipPath id="clip0_811_3070">
<rect width="209" height="166" fill="white"/>
</clipPath>
</defs>
</svg>
